<svg width="22" height="31" viewBox="0 0 22 31" fill="none" xmlns="http://www.w3.org/2000/svg">
<path d="M16.3047 0.885742C16.5355 0.85207 16.7718 0.897001 16.9736 1.01367L17.0361 1.0498V1.05859C17.2073 1.17512 17.3419 1.33857 17.418 1.53223C17.5032 1.74945 17.5113 1.98902 17.4424 2.21191L14.2178 12.6562H20.0908C20.2925 12.6562 20.4895 12.7157 20.6582 12.8262C20.8269 12.9367 20.9599 13.0935 21.04 13.2783C21.1201 13.4632 21.1444 13.6678 21.1094 13.8662C21.0744 14.0646 20.9813 14.248 20.8428 14.3945L20.8438 14.3955L13.5703 22.0977L6.29785 29.7998C6.13779 29.9695 5.92539 30.0807 5.69434 30.1143C5.46326 30.1478 5.22729 30.1024 5.02539 29.9854C4.82344 29.8682 4.66706 29.6859 4.58203 29.4688C4.49709 29.2517 4.48877 29.0126 4.55762 28.79L7.78223 18.3438H1.90918C1.70746 18.3438 1.51045 18.2843 1.3418 18.1738C1.17315 18.0633 1.04009 17.9065 0.959961 17.7217C0.879876 17.5368 0.855647 17.3322 0.890625 17.1338C0.925645 16.9354 1.01773 16.751 1.15625 16.6045L15.7012 1.19922C15.861 1.0298 16.074 0.919476 16.3047 0.885742ZM4.30273 16.2812H9.18164C9.34336 16.2812 9.50303 16.319 9.64746 16.3916C9.79187 16.4642 9.91749 16.5695 10.0137 16.6992C10.1098 16.8289 10.1739 16.9796 10.2012 17.1387C10.2284 17.2977 10.2175 17.461 10.1699 17.6152L7.8418 25.1543L17.6953 14.7188H12.8184C12.6566 14.7188 12.497 14.681 12.3525 14.6084C12.2081 14.5358 12.0825 14.4305 11.9863 14.3008C11.8902 14.1711 11.8261 14.0203 11.7988 13.8613C11.7716 13.7023 11.7825 13.539 11.8301 13.3848V13.3838L14.1572 5.84473L4.30273 16.2812Z"/>
</svg>
